<svg id="Capa_1" enable-background="new 0 0 512 512" height="512" viewBox="0 0 512 512" width="512" xmlns="http://www.w3.org/2000/svg"><g><g><path d="m327.288 355.133h45.159c17.6 0 31.867-14.267 31.867-31.867v-134.532c0-17.6-14.267-31.867-31.867-31.867h-45.159v-63.734h55.782c46.933 0 84.979 38.047 84.979 84.979v155.776c0 46.933-38.047 84.979-84.979 84.979h-55.782z" fill="#eebf00"/></g><g><path d="m75.818 0c-17.6 0-31.867 14.268-31.867 31.867v58.057l.058-.07c-.058.07 146.611 35.29 146.611 35.29l10-65.277-10.001-59.867z" fill="#fff5f5"/><path d="m161.348 89.854-.127.154-.127.154c-16.131 19.616-42.285 19.616-58.417 0l-.127-.154-.127-.154c-16.131-19.616-42.285-19.616-58.417 0l-.058.07v422.076h146.669l10-218.429-10-218.427c-10.59-.02-21.187 4.883-29.269 14.71z" fill="#ffe477"/></g><g><path d="m337.104 89.854.127.154.058.07v-58.211c0-17.6-14.267-31.867-31.867-31.867h-114.803v125.144s146.669-35.066 146.485-35.29z" fill="#e6e6e6"/><path d="m337.231 90.008-.127-.154c-16.131-19.616-42.285-19.616-58.417 0l-.127.154-.127.154c-16.131 19.616-42.285 19.616-58.417 0l-.127-.154-.127-.154c-8.05-9.789-18.595-14.691-29.145-14.71v436.856h146.669v-421.922z" fill="#ffcd00"/></g><g><path d="m175.619 178.152v256.305h15l7-144.79-7-111.515z" fill="#ffcd00"/><path d="m190.619 178.152h15v256.304h-15z" fill="#eebf00"/></g><g><path d="m111.885 178.152h30v256.304h-30z" fill="#ffcd00"/></g><g><path d="m239.354 178.152h30v256.304h-30z" fill="#eebf00"/></g></g></svg>