<svg id="Capa_1" enable-background="new 0 0 512 512" height="512" viewBox="0 0 512 512" width="512" xmlns="http://www.w3.org/2000/svg"><g><path d="m38.194 379.454v67.07c0 36.161 29.314 65.476 65.476 65.476h304.66c36.161 0 65.476-29.314 65.476-65.476v-67.07z" fill="#fed841"/><path d="m256 379.454v132.546h152.33c36.161 0 65.476-29.314 65.476-65.476v-67.07z" fill="#fdb118"/><path d="m38.194 322.623h435.612v87.094h-435.612z" fill="#ff1f2e"/><path d="m256 322.623h217.806v87.094h-217.806z" fill="#bf0030"/><path d="m229.337 413.904 77.984-91.281h-209.19l77.984 91.281c13.972 16.354 39.251 16.354 53.222 0z" fill="#fdb118"/><path d="m256 322.623v60.072l51.321-60.072z" fill="#f9851c"/><path d="m473.806 256.94h-435.612c-21.094 0-38.194 17.1-38.194 38.194 0 21.094 17.1 38.194 38.194 38.194h435.612c21.094 0 38.194-17.1 38.194-38.194 0-21.094-17.1-38.194-38.194-38.194z" fill="#bf5c15"/><path d="m473.806 256.94h-217.806v76.388h217.806c21.094 0 38.194-17.1 38.194-38.194s-17.1-38.194-38.194-38.194z" fill="#994910"/><path d="m38.194 170.732v86.177c27.224 0 27.224 18.075 54.449 18.075 27.226 0 27.226-18.075 54.451-18.075s27.225 18.075 54.45 18.075c27.224 0 27.224-18.075 54.448-18.075 27.225 0 27.225 18.075 54.451 18.075s27.226-18.075 54.452-18.075c27.227 0 27.227 18.075 54.455 18.075s27.228-18.075 54.455-18.075v-86.177z" fill="#7ad425"/><path d="m256 170.732v86.177c27.218.003 27.221 18.075 54.444 18.075 27.226 0 27.226-18.075 54.452-18.075 27.227 0 27.227 18.075 54.455 18.075s27.227-18.075 54.455-18.075v-86.177z" fill="#6ebd21"/><path d="m309.22 0h-106.44c-90.898 0-164.586 73.688-164.586 164.586v39.85h435.612v-39.85c0-90.898-73.688-164.586-164.586-164.586z" fill="#fed841"/><path d="m473.806 164.586c0-90.898-73.688-164.586-164.586-164.586h-53.22v204.437h217.806z" fill="#fdb118"/><path d="m144.776 118.583h28.667v30h-28.667z" fill="#99490f"/><path d="m241.667 118.583h28.667v30h-28.667z" fill="#99490f"/><path d="m256 118.583h14.333v30h-14.333z" fill="#662c05"/><path d="m338.558 118.583h28.667v30h-28.667z" fill="#662c05"/><path d="m193.221 65.287h28.667v30h-28.667z" fill="#99490f"/><path d="m290.112 65.287h28.667v30h-28.667z" fill="#662c05"/></g></svg>