<svg id="Layer_3" enable-background="new 0 0 64 64" height="512" viewBox="0 0 64 64" width="512" xmlns="http://www.w3.org/2000/svg"><g><path d="m15.001 18.002c-1.256-1.671-2.001-3.75-2.001-6.002 0-5.523 4.477-10 10-10s10 4.477 10 10c0 2.252-.745 4.331-2.001 6.002" fill="#f4b2b0"/><g fill="#b3404a"><path d="m9.017 38.183c.088.474.501.815.983.815h26c.481 0 .894-.342.982-.815l3-16c.055-.292-.023-.594-.213-.822-.19-.229-.472-.361-.769-.361h-32c-.298 0-.58.132-.77.361s-.269.53-.213.822zm14.982-9.184v-2.001h3.001v2.001zm3.001 1.999v2.001h-3.001v-2.001zm-5-1.999h-3v-2.001h3zm0 1.999v2.001h-3v-2.001zm-5 2.001h-3.001v-2.001h3.001zm0 1.999v2h-3.001v-2zm2 0h3v2h-3zm4.999 0h3.001v2h-3.001zm5.001 0h3v2h-3zm0-1.999v-2.001h3v2.001zm5-2.001h2.295l-.375 2.001h-1.92zm0-1.999v-2.001h3.046l-.375 2.001zm-2 0h-3v-2.001h3zm-3-4v-2h3v2zm-2 0h-3.001v-2h3.001zm-5 0h-3v-2h3zm-5 0h-3.001v-2h3.001zm0 1.999v2.001h-3.001v-2.001zm-5 2.001h-2.67l-.375-2.001h3.045zm0 1.999v2.001h-1.92l-.375-2.001zm-1.546 4h1.546v2h-1.17zm23.546 2v-2h1.545l-.375 2zm3.42-11.999h-3.42v-2h3.795zm-25.42-2v2h-3.42l-.375-2z"/><path d="m60 4.999h-7c-1.103 0-2 .896-2 2h-5c-.477 0-.887.336-.981.804l-1.839 9.196h-10.382c.788-1.538 1.202-3.236 1.202-5.001 0-6.064-4.935-11-11-11s-11 4.936-11 11c0 1.765.414 3.463 1.201 5.001h-11.201c-.294 0-.573.129-.763.354-.19.224-.272.521-.224.811l4 24c.081.482.498.834.987.834h34v.001h2c.551 0 .999.448.999 1.001 0 .551-.448 1-.999 1l-36-.001c0-.001 0 0 0 0-.265 0-.52.104-.707.292s-.293.442-.293.708v3.999c0 .553.447 1 1 1h1.382l1.544 3.087c-1.164.917-1.926 2.321-1.926 3.914 0 2.757 2.243 4.999 5 4.999s5-2.242 5-4.999c0-1.593-.762-2.997-1.925-3.913l1.544-3.088h12.764l1.544 3.087c-1.165.917-1.927 2.321-1.927 3.914 0 2.757 2.243 4.999 5 4.999s5-2.242 5-4.999c0-1.593-.762-2.997-1.925-3.913l1.544-3.088h1.381c.552 0 1-.447 1-1v-2.999l1 .001c1.654 0 2.999-1.347 2.999-3.001s-1.345-3-2.999-3h-.82l3.806-22.836 1.833-9.164h4.181c0 1.103.897 1.999 2 1.999h7c1.654 0 3-1.346 3-3-.001-1.654-1.347-2.999-3-2.999zm-48 55.999c-1.654 0-3-1.346-3-2.999 0-1.654 1.346-3 3-3s3 1.346 3 3c-.001 1.653-1.347 2.999-3 2.999zm1.287-7.81c-.413-.111-.84-.189-1.288-.189s-.874.078-1.288.189l-1.095-2.19h4.765zm20.713 7.81c-1.654 0-3-1.346-3-2.999 0-1.654 1.346-3 3-3s3 1.346 3 3c-.001 1.653-1.347 2.999-3 2.999zm1.287-7.81c-.413-.111-.84-.189-1.288-.189s-.874.078-1.288.189l-1.095-2.19h4.765zm3.713-4.19h-32v-1.999h32zm-25-37c0-4.962 4.037-9 9-9 4.962 0 9 4.038 9 9 0 1.804-.529 3.52-1.523 5.001h-3.034c.345-.591.557-1.269.557-2.001 0-2.205-1.794-3.999-3.999-3.999v-4c1.102 0 1.999.896 1.999 2h2c0-2.206-1.794-4-3.999-4v-1l-2-.001v1.001c-2.206 0-4 1.794-4 4.001 0 2.204 1.794 3.998 4 3.998v4c-1.103 0-2-.896-2-1.998h-2c0 .731.212 1.409.556 1.999h-3.034c-.995-1.481-1.523-3.197-1.523-5.001zm10 5-.001-4h.001c1.102 0 1.999.898 1.999 2.002 0 1.102-.897 1.998-1.999 1.998zm-2-5.999c-1.103 0-2-.897-2-2 0-1.104.897-2 2-2zm17.153 29.999h-32.306l-3.667-21.999h39.639zm20.847-32h-7v-1.999h7c.551 0 1 .449 1 1.001 0 .551-.449.998-1 .998z"/><path d="m12 55.999c-1.103 0-2 .896-2 2 0 1.103.897 1.999 2 1.999s2-.896 2-1.999c-.001-1.103-.898-2-2-2z"/><path d="m34 55.999c-1.103 0-2 .896-2 2 0 1.103.897 1.999 2 1.999s2-.896 2-1.999c-.001-1.103-.898-2-2-2z"/></g></g></svg>