<?xml version="1.0" encoding="iso-8859-1"?>
<!-- Generator: Adobe Illustrator 19.0.0, SVG Export Plug-In . SVG Version: 6.00 Build 0)  -->
<svg version="1.1" id="Layer_1" xmlns="http://www.w3.org/2000/svg" xmlns:xlink="http://www.w3.org/1999/xlink" x="0px" y="0px"
	 viewBox="0 0 473.654 473.654" style="enable-background:new 0 0 473.654 473.654;" xml:space="preserve">
<circle style="fill:#B9E8EA;" cx="236.827" cy="236.827" r="236.827"/>
<path style="fill:#9D9E9E;" d="M14.367,318.29c33.215,90.662,120.276,155.364,222.445,155.364
	c102.176,0,189.237-64.702,222.452-155.364H14.367z"/>
<g>
	<path style="fill:#CB8F5B;" d="M398.822,239.101c-7.184,0-29.621-5.385-29.621-5.385c-5.71-0.946-16.596-8.784-23.372-9.611
		c-9.136-1.114-8.941,0.636-23.301,0.636c-3.478,0-16.159-0.901-16.159-0.901s-12.311,13.709-21.54,13.466
		c-9.33-0.247-25.53-18.171-36.053-18.171c-160.233,0-180.262,30.571-180.262,30.571v53.109c0,0,8.702,28.705,180.27,28.705
		s178.161-28.705,178.161-28.705v-53.113L398.822,239.101z"/>
	<path style="fill:#CB8F5B;" d="M248.775,245.163c-160.233,0-180.262,30.575-180.262,30.575v53.102c0,0,8.702,28.709,180.27,28.709
		s178.161-28.709,178.161-28.709v-53.102C426.943,275.737,409.02,245.163,248.775,245.163z"/>
</g>
<g>
	<path style="fill:#B5794D;" d="M247.593,240.679c-98.904,0-179.081,11.05-179.081,30.047v10.011
		c0-18.993,80.173-30.044,179.081-30.044s179.088,11.054,179.088,30.044v-10.011C426.682,251.729,346.505,240.679,247.593,240.679z"
		/>
	<path style="fill:#B5794D;" d="M248.779,300.508c-67.469,0-177.102,1.582-177.102,1.582v2.636c0,0,109.637,5.007,177.102,5.007
		c67.477,0,177.106-5.007,177.106-5.007v-2.636C425.889,302.09,316.256,300.508,248.779,300.508z"/>
</g>
<path style="fill:#A56F4A;" d="M71.676,304.727c0,0,109.637,5.007,177.102,5.007c67.477,0,177.106-5.007,177.106-5.007H71.676z"/>
<path style="fill:#B5794D;" d="M247.593,352.694c-98.904,0-179.081-9.693-179.081-26.356v2.502
	c0,16.667,80.173,30.175,179.081,30.175s179.088-13.507,179.088-30.175v-2.502C426.682,343.001,346.505,352.694,247.593,352.694z"/>
<g>
	<path style="fill:#3D3027;" d="M264.728,314.218c-5.46,0-9.884,4.42-9.884,9.88v22.138h12.479c2.438-0.034,4.873-0.079,7.288-0.116
		v-22.022C274.612,318.638,270.184,314.218,264.728,314.218z"/>
	<path style="fill:#3D3027;" d="M267.323,346.236h7.288v-0.116C272.196,346.157,269.765,346.202,267.323,346.236z"/>
	<path style="fill:#3D3027;" d="M232.112,314.218c-5.131,0-9.289,4.42-9.289,9.88v22.071c1.511,0.026,3.029,0.045,4.547,0.067
		h14.027v-22.138C241.397,318.638,237.239,314.218,232.112,314.218z"/>
	<path style="fill:#3D3027;" d="M201.671,314.218c-4.91,0-8.896,4.42-8.896,9.88v21.14c5.793,0.262,11.731,0.482,17.793,0.654
		v-21.798C210.568,318.638,206.582,314.218,201.671,314.218z"/>
	<path style="fill:#3D3027;" d="M173.598,313.029c-4.686,0-8.496,4.42-8.496,9.884v20.818c5.505,0.378,11.174,0.722,17,1.021
		v-21.839C182.106,317.449,178.299,313.029,173.598,313.029z"/>
</g>
<path style="fill:#774F39;" d="M165.102,322.908v20.818c1.343,0.09,1.937,0.18,3.298,0.266l0.202-29.071
	C166.478,316.716,165.102,319.629,165.102,322.908z"/>
<g>
	<path style="fill:#3D3027;" d="M148.102,312.236c-4.581,0-8.294,4.428-8.294,9.887v19.565c5.299,0.55,10.845,1.055,16.6,1.515
		v-21.084C156.411,316.663,152.691,312.236,148.102,312.236z"/>
	<path style="fill:#3D3027;" d="M127.351,311.443c-4.039,0-7.315,4.424-7.315,9.887v17.972c4.626,0.658,9.51,1.264,14.629,1.832
		V321.33C134.666,315.867,131.39,311.443,127.351,311.443z"/>
	<path style="fill:#3D3027;" d="M111.338,311.05c-3.276,0-5.931,4.424-5.931,9.887v15.998c3.721,0.696,7.677,1.35,11.858,1.971
		v-17.969C117.266,315.474,114.614,311.05,111.338,311.05z"/>
	<path style="fill:#3D3027;" d="M98.097,309.076c-2.726,0-4.944,4.42-4.944,9.884v15.34c3.051,0.763,6.35,1.488,9.887,2.18v-17.52
		C103.04,313.496,100.823,309.076,98.097,309.076z"/>
	<path style="fill:#3D3027;" d="M87.226,307.89c-1.963,0-3.556,4.424-3.556,9.88v13.765c2.165,0.748,4.536,1.462,7.116,2.154V317.77
		C90.786,312.314,89.185,307.89,87.226,307.89z"/>
	<path style="fill:#3D3027;" d="M79.324,307.486c-1.313,0-2.375,4.428-2.375,9.887v11.443c1.414,0.688,2.999,1.357,4.742,2.012
		v-13.451C81.687,311.914,80.629,307.486,79.324,307.486z"/>
</g>
<g>
	<path style="fill:#513E31;" d="M264.728,314.218c0,0,4.087,3.684,5.665,8.956c1.582,5.273,4.218,23.062,4.218,23.062v-22.138
		C274.612,318.638,270.184,314.218,264.728,314.218z"/>
	<path style="fill:#513E31;" d="M232.31,314.218c0,0,4.802,2.633,6.196,7.905c1.391,5.269,2.494,24.113,2.494,24.113v-22.138
		C241.004,318.638,237.115,314.218,232.31,314.218z"/>
</g>
<g>
	<path style="fill:#774F39;" d="M192.775,324.098v21.14c0.826,0.03,1.675,0.064,2.506,0.097v-28.099
		C193.732,319.012,192.775,321.428,192.775,324.098z"/>
	<path style="fill:#774F39;" d="M146.139,312.524c-3.635,1.058-6.331,4.947-6.331,9.596v19.565c1.978,0.202,4.405,0.396,6.451,0.595
		L146.139,312.524z"/>
	<path style="fill:#774F39;" d="M120.037,321.33v17.972c2.184,0.314,4.428,0.61,6.72,0.897v-28.716
		C122.998,311.892,120.037,316.136,120.037,321.33z"/>
	<path style="fill:#774F39;" d="M111.338,311.05c-3.276,0-5.931,4.424-5.931,9.887v15.998c2.113,0.393,4.327,0.774,6.597,1.141
		v-26.959C111.783,311.073,111.563,311.05,111.338,311.05z"/>
</g>
<path style="fill:#704936;" d="M98.097,309.076c-2.726,0-4.944,4.42-4.944,9.884v15.34c2.12,0.531,4.368,1.04,6.727,1.537v-26.087
	C99.327,309.315,98.728,309.076,98.097,309.076z"/>
<path style="fill:#684432;" d="M87.226,307.89c-1.963,0-3.556,4.424-3.556,9.88v13.765c1.586,0.546,3.324,1.073,5.134,1.589v-24.191
	C88.332,308.272,87.798,307.89,87.226,307.89z"/>
<path style="fill:#5B3C2C;" d="M79.324,307.486c-1.313,0-2.375,4.428-2.375,9.887v11.443c1.04,0.505,2.203,0.998,3.429,1.485
	v-21.768C80.053,307.875,79.702,307.486,79.324,307.486z"/>
<g>
	<path style="fill:#3D3027;" d="M222.953,346.12v0.116h7.288C227.792,346.202,225.369,346.157,222.953,346.12z"/>
	<path style="fill:#3D3027;" d="M295.89,314.218c-4.91,0-8.893,4.42-8.893,9.88v21.798c6.062-0.172,11.997-0.393,17.785-0.654
		v-21.14C304.786,318.638,300.804,314.218,295.89,314.218z"/>
	<path style="fill:#3D3027;" d="M323.959,313.029c-4.689,0-8.496,4.42-8.496,9.884v21.839c5.826-0.299,11.495-0.643,17-1.021
		v-20.818C332.463,317.449,328.652,313.029,323.959,313.029z"/>
</g>
<path style="fill:#774F39;" d="M328.967,314.924l0.198,29.071c1.357-0.086,1.952-0.176,3.298-0.266v-20.818
	C332.463,319.629,331.083,316.716,328.967,314.924z"/>
<g>
	<path style="fill:#3D3027;" d="M349.463,312.236c-4.592,0-8.309,4.428-8.309,9.887v21.084c5.755-0.46,11.301-0.965,16.607-1.515
		v-19.565C357.761,316.663,354.04,312.236,349.463,312.236z"/>
	<path style="fill:#3D3027;" d="M370.21,311.443c-4.035,0-7.315,4.424-7.315,9.887v19.805c5.123-0.568,10.003-1.174,14.633-1.832
		V321.33C377.529,315.867,374.253,311.443,370.21,311.443z"/>
	<path style="fill:#3D3027;" d="M386.223,311.05c-3.272,0-5.931,4.424-5.931,9.887v17.969c4.188-0.621,8.145-1.275,11.866-1.971
		v-15.998C392.162,315.474,389.499,311.05,386.223,311.05z"/>
	<path style="fill:#3D3027;" d="M399.465,309.076c-2.726,0-4.94,4.42-4.94,9.884v17.52c3.538-0.692,6.836-1.421,9.887-2.18v-15.34
		C404.412,313.496,402.199,309.076,399.465,309.076z"/>
	<path style="fill:#3D3027;" d="M410.34,307.89c-1.967,0-3.56,4.424-3.56,9.88v15.919c2.577-0.696,4.951-1.406,7.116-2.154V317.77
		C413.9,312.314,412.307,307.89,410.34,307.89z"/>
	<path style="fill:#3D3027;" d="M418.241,307.486c-1.305,0-2.367,4.428-2.367,9.887v13.455c1.739-0.654,3.332-1.324,4.746-2.012
		v-11.439C420.62,311.914,419.558,307.486,418.241,307.486z"/>
</g>
<g>
	<path style="fill:#774F39;" d="M302.285,317.236v28.099c0.83-0.034,1.679-0.067,2.502-0.097v-21.14
		C304.786,321.428,303.833,319.012,302.285,317.236z"/>
	<path style="fill:#774F39;" d="M351.426,312.524l-0.12,29.76c2.046-0.194,4.476-0.389,6.454-0.595v-19.565
		C357.761,317.471,355.061,313.582,351.426,312.524z"/>
	<path style="fill:#774F39;" d="M370.809,311.484V340.2c2.292-0.288,4.536-0.58,6.72-0.897V321.33
		C377.529,316.136,374.563,311.892,370.809,311.484z"/>
	<path style="fill:#774F39;" d="M386.223,311.05c-0.224,0-0.441,0.026-0.662,0.067v26.959c2.266-0.37,4.476-0.748,6.597-1.141
		v-15.998C392.162,315.474,389.499,311.05,386.223,311.05z"/>
</g>
<path style="fill:#704936;" d="M399.465,309.076c-0.628,0-1.227,0.239-1.78,0.673v26.087c2.356-0.497,4.603-1.01,6.728-1.537v-15.34
	C404.412,313.496,402.199,309.076,399.465,309.076z"/>
<path style="fill:#684432;" d="M410.34,307.89c-0.572,0-1.107,0.385-1.586,1.043v24.191c1.814-0.52,3.556-1.043,5.142-1.589V317.77
	C413.9,312.314,412.307,307.89,410.34,307.89z"/>
<path style="fill:#5B3C2C;" d="M418.241,307.486c-0.378,0-0.733,0.389-1.055,1.047v21.768c1.227-0.486,2.39-0.984,3.429-1.485
	v-11.439C420.62,311.914,419.558,307.486,418.241,307.486z"/>
<g>
	<path style="fill:#3D3027;" d="M270.394,268.09c-1.578-5.265-5.665-8.96-5.665-8.96c-5.46,0-9.884,4.424-9.884,9.884v24.648
		c5.621,0.004,11.484,0.022,17.52,0.049C271.688,280.79,270.966,270.012,270.394,268.09z"/>
	<path style="fill:#3D3027;" d="M238.51,267.039c-1.361-5.146-5.965-7.775-6.178-7.891c-0.071,0-0.146-0.011-0.221-0.011
		c-5.131,0-9.289,4.424-9.289,9.884v24.704c5.86-0.026,11.574-0.041,17.071-0.052C239.501,280.262,239.022,268.991,238.51,267.039z"
		/>
	<path style="fill:#3D3027;" d="M235.223,259.713c3.369,1.357,5.781,5,5.781,9.304v24.648h0.393v-24.648
		C241.397,264.713,238.82,261.071,235.223,259.713z"/>
	<path style="fill:#3D3027;" d="M201.671,260.712c-2.513,0-4.768,1.178-6.387,3.048v30.126c5.134-0.037,10.243-0.071,15.284-0.101
		v-23.189C210.568,265.132,206.582,260.712,201.671,260.712z M195.168,263.891c0.037-0.045,0.075-0.09,0.112-0.135v-0.022
		C195.239,263.782,195.21,263.842,195.168,263.891z"/>
	<path style="fill:#3D3027;" d="M173.598,262.952c-1.87,0-3.594,0.711-4.996,1.903l-0.067,29.247
		c4.495-0.037,9.024-0.079,13.571-0.116v-21.155C182.106,267.38,178.299,262.952,173.598,262.952z"/>
</g>
<g>
	<path style="fill:#774F39;" d="M168.442,264.994c0.06-0.045,0.108-0.086,0.161-0.135v-0.011
		C168.55,264.889,168.498,264.945,168.442,264.994z"/>
	<path style="fill:#774F39;" d="M168.442,264.994c-0.15,0.142-0.307,0.284-0.456,0.438c-0.082,0.09-0.165,0.172-0.247,0.262
		c-0.146,0.161-0.288,0.337-0.43,0.516c-0.067,0.086-0.131,0.168-0.202,0.258c-0.18,0.251-0.352,0.509-0.516,0.782
		c-0.011,0.019-0.026,0.034-0.037,0.056c-0.168,0.288-0.322,0.598-0.467,0.909c-0.049,0.101-0.082,0.206-0.123,0.307
		c-0.09,0.221-0.179,0.441-0.258,0.673c-0.041,0.12-0.079,0.243-0.116,0.37c-0.071,0.224-0.131,0.445-0.18,0.669
		c-0.034,0.131-0.064,0.262-0.09,0.393c-0.049,0.239-0.082,0.49-0.116,0.733c-0.015,0.12-0.034,0.236-0.049,0.359
		c-0.034,0.37-0.06,0.74-0.06,1.118v21.301c1.141-0.004,2.285-0.015,3.429-0.03l0.067-29.247
		C168.55,264.908,168.498,264.945,168.442,264.994z"/>
</g>
<g>
	<path style="fill:#3D3027;" d="M148.102,265.588c-0.681,0-1.335,0.108-1.963,0.292l0.037,28.454
		c3.362-0.037,6.78-0.075,10.231-0.108v-18.754C156.411,270.008,152.691,265.588,148.102,265.588z"/>
	<path style="fill:#3D3027;" d="M143.622,267.163c0.755-0.58,1.589-1.013,2.487-1.279
		C145.211,266.149,144.377,266.579,143.622,267.163z"/>
	<path style="fill:#3D3027;" d="M127.351,266.381c-0.202,0-0.393,0.015-0.595,0.037v28.118c2.58-0.019,5.22-0.052,7.905-0.082
		v-18.189C134.666,270.801,131.39,266.381,127.351,266.381z"/>
	<path style="fill:#3D3027;" d="M112.004,268.681v26.035c1.716-0.022,3.478-0.041,5.265-0.064v-16.151
		C117.266,273.415,114.966,269.231,112.004,268.681z"/>
	<path style="fill:#3D3027;" d="M99.877,272.054v22.811c1.028-0.019,2.087-0.034,3.16-0.045v-13.552
		C103.04,277.073,101.728,273.49,99.877,272.054z"/>
	<path style="fill:#3D3027;" d="M88.452,273.06c0.127,0.131,0.232,0.37,0.352,0.539v-0.12
		C88.695,273.325,88.579,273.183,88.452,273.06z M88.804,273.598v21.413c0.647-0.011,1.309-0.022,1.982-0.03v-12.662
		C90.786,278.467,89.967,275.225,88.804,273.598z"/>
	<path style="fill:#3D3027;" d="M80.378,276.512v18.608c0.423-0.004,0.868-0.011,1.313-0.022v-9.742
		C81.687,281.481,81.152,278.138,80.378,276.512z"/>
</g>
<g>
	<path style="fill:#513E31;" d="M264.728,259.134c0,0,4.087,3.691,5.665,8.96c0.572,1.922,1.294,12.7,1.971,25.62
		c0.744,0.004,1.492,0.004,2.251,0.007v-24.704C274.612,263.554,270.184,259.134,264.728,259.134z"/>
	<path style="fill:#513E31;" d="M232.31,259.134c0,0,0.015,0.004,0.019,0.011c1.017,0.019,1.982,0.224,2.891,0.565
		C234.307,259.343,233.338,259.134,232.31,259.134z"/>
	<path style="fill:#513E31;" d="M235.223,259.713c-0.909-0.344-1.874-0.546-2.891-0.565c0.217,0.12,4.817,2.745,6.178,7.891
		c0.512,1.952,0.991,13.227,1.384,26.633c0.374-0.004,0.744-0.004,1.111-0.004v-24.648
		C241.004,264.713,238.592,261.071,235.223,259.713z"/>
</g>
<g>
	<path style="fill:#774F39;" d="M193.448,266.819c0,0.011,0,0.019-0.004,0.026c-0.209,0.572-0.378,1.171-0.486,1.791
		c0,0.007-0.004,0.019-0.004,0.034c-0.112,0.621-0.176,1.26-0.176,1.922v23.309c0.838-0.011,1.672-0.019,2.506-0.022v-30.152
		C194.51,264.623,193.882,265.667,193.448,266.819z"/>
	<polygon style="fill:#774F39;" points="146.109,265.884 146.139,265.88 146.139,265.876 	"/>
	<path style="fill:#774F39;" d="M146.139,265.88c-0.011,0-0.022,0.007-0.03,0.007c-0.894,0.262-1.728,0.699-2.487,1.279
		c-0.004,0-0.007,0.004-0.015,0.004c-0.363,0.28-0.703,0.598-1.021,0.939c-0.034,0.034-0.064,0.064-0.09,0.094
		c-0.31,0.34-0.606,0.707-0.871,1.099c-0.015,0.026-0.026,0.049-0.045,0.071c-0.262,0.396-0.497,0.811-0.703,1.253
		c-0.007,0.019-0.026,0.034-0.041,0.06c-0.191,0.426-0.363,0.883-0.509,1.343c-0.026,0.079-0.049,0.157-0.075,0.236
		c-0.131,0.456-0.236,0.924-0.31,1.41c-0.011,0.079-0.022,0.157-0.034,0.243c-0.071,0.512-0.108,1.017-0.108,1.552v18.922
		c2.094-0.022,4.222-0.049,6.368-0.064L146.139,265.88z"/>
	<path style="fill:#774F39;" d="M126.106,266.531c-0.019,0-0.034,0.004-0.052,0.011c-0.206,0.045-0.404,0.116-0.602,0.183
		c-0.026,0.011-0.056,0.019-0.086,0.034c-0.187,0.071-0.37,0.15-0.55,0.239c-0.037,0.022-0.075,0.037-0.108,0.056
		c-0.176,0.09-0.337,0.191-0.501,0.295c-0.045,0.03-0.093,0.06-0.135,0.09c-0.157,0.097-0.307,0.217-0.452,0.337
		c-0.052,0.034-0.105,0.079-0.153,0.123c-0.135,0.116-0.273,0.236-0.404,0.366c-0.052,0.052-0.108,0.108-0.161,0.157
		c-0.123,0.135-0.243,0.258-0.359,0.396c-0.056,0.071-0.112,0.146-0.172,0.213c-0.105,0.135-0.209,0.273-0.31,0.415
		c-0.06,0.082-0.12,0.172-0.176,0.262c-0.09,0.135-0.18,0.277-0.269,0.419c-0.056,0.097-0.112,0.213-0.172,0.314
		c-0.071,0.142-0.15,0.277-0.221,0.423c-0.06,0.12-0.108,0.247-0.165,0.37c-0.06,0.135-0.127,0.284-0.183,0.426
		c-0.056,0.138-0.093,0.273-0.146,0.415c-0.049,0.142-0.097,0.284-0.142,0.426c-0.052,0.157-0.093,0.31-0.135,0.471
		c-0.03,0.135-0.071,0.269-0.101,0.415c-0.037,0.176-0.071,0.359-0.101,0.535c-0.026,0.131-0.052,0.251-0.071,0.389
		c-0.03,0.206-0.052,0.415-0.075,0.621c-0.011,0.116-0.026,0.228-0.037,0.337c-0.019,0.329-0.037,0.658-0.037,0.987v18.358
		c2.195-0.026,4.439-0.056,6.72-0.082v-28.118C126.54,266.441,126.315,266.478,126.106,266.531z"/>
	<path style="fill:#774F39;" d="M111.338,268.617c-3.276,0-5.931,4.428-5.931,9.884v16.293c2.132-0.026,4.327-0.052,6.597-0.079
		v-26.035C111.783,268.644,111.563,268.617,111.338,268.617z"/>
</g>
<path style="fill:#704936;" d="M99.873,272.054c-0.135-0.105-0.269-0.198-0.415-0.284c-0.011,0-0.011-0.007-0.015-0.007
	c-0.135-0.079-0.277-0.15-0.411-0.198c-0.034-0.015-0.079-0.026-0.116-0.034c-0.112-0.037-0.228-0.075-0.34-0.094
	c-0.153-0.034-0.314-0.056-0.475-0.056c-2.726,0-4.944,4.428-4.944,9.887v13.679c2.12-0.026,4.364-0.06,6.727-0.082v-22.811
	C99.873,272.054,99.873,272.054,99.873,272.054z"/>
<path style="fill:#684432;" d="M88.452,273.06c-0.004-0.011-0.015-0.022-0.026-0.03c-0.112-0.105-0.221-0.202-0.329-0.28
	c-0.019-0.015-0.049-0.03-0.071-0.045c-0.105-0.071-0.206-0.116-0.314-0.157c-0.022-0.011-0.06-0.03-0.09-0.041
	c-0.131-0.041-0.262-0.067-0.396-0.067c-1.963,0-3.556,4.42-3.556,9.88v12.756c1.574-0.026,3.298-0.045,5.134-0.067v-21.532
	C88.695,273.325,88.579,273.183,88.452,273.06z"/>
<path style="fill:#5B3C2C;" d="M80.147,276.093c-0.011-0.011-0.022-0.026-0.03-0.037c-0.071-0.101-0.142-0.191-0.217-0.277
	c-0.015-0.011-0.03-0.03-0.045-0.052c-0.071-0.064-0.135-0.108-0.206-0.153c-0.022-0.007-0.041-0.026-0.064-0.034
	c-0.082-0.041-0.176-0.067-0.262-0.067c-1.313,0-2.375,4.428-2.375,9.88v9.813c1.006-0.015,2.154-0.03,3.429-0.045v-18.608
	C80.296,276.358,80.225,276.224,80.147,276.093z"/>
<g>
	<path style="fill:#3D3027;" d="M302.285,263.763c0.045,0.049,0.086,0.101,0.131,0.153c-0.049-0.056-0.082-0.123-0.131-0.179
		V263.763z M286.997,270.596v23.189c5.041,0.03,10.149,0.064,15.284,0.101v-30.122c-1.619-1.87-3.874-3.051-6.391-3.051
		C290.984,260.712,286.997,265.132,286.997,270.596z"/>
	<path style="fill:#3D3027;" d="M328.967,264.859c-1.406-1.193-3.13-1.903-5.007-1.903c-4.689,0-8.496,4.428-8.496,9.88v21.155
		c4.544,0.037,9.076,0.079,13.571,0.116L328.967,264.859z"/>
</g>
<path style="fill:#774F39;" d="M328.967,264.844v0.011c0.049,0.049,0.101,0.09,0.15,0.135
	C329.064,264.945,329.023,264.889,328.967,264.844z"/>
<g>
	<path style="fill:#3D3027;" d="M332.403,271.714c-0.015-0.12-0.03-0.236-0.049-0.359c-0.03-0.243-0.071-0.494-0.116-0.733
		c-0.026-0.131-0.056-0.262-0.09-0.393c-0.052-0.228-0.108-0.449-0.176-0.669c-0.037-0.123-0.075-0.251-0.116-0.37
		c-0.079-0.232-0.168-0.453-0.258-0.673c-0.049-0.101-0.082-0.206-0.131-0.307c-0.146-0.31-0.295-0.621-0.464-0.909
		c-0.015-0.022-0.026-0.037-0.041-0.056c-0.161-0.273-0.333-0.535-0.512-0.782c-0.067-0.09-0.138-0.172-0.206-0.258
		c-0.138-0.18-0.28-0.352-0.426-0.516c-0.079-0.09-0.161-0.172-0.243-0.262c-0.15-0.153-0.307-0.295-0.464-0.438
		c-0.049-0.045-0.097-0.086-0.15-0.135l0.067,29.247c1.144,0.015,2.285,0.026,3.429,0.03v-21.301
		C332.463,272.454,332.433,272.084,332.403,271.714z"/>
	<path style="fill:#3D3027;" d="M351.456,265.884c0.894,0.262,1.728,0.699,2.487,1.279
		C353.184,266.579,352.354,266.149,351.456,265.884z"/>
	<path style="fill:#3D3027;" d="M349.463,265.588c-4.592,0-8.309,4.42-8.309,9.884v18.754c3.459,0.034,6.87,0.071,10.235,0.108
		l0.037-28.454C350.794,265.697,350.136,265.588,349.463,265.588z"/>
	<path style="fill:#3D3027;" d="M370.21,266.381c-4.035,0-7.315,4.42-7.315,9.88v18.189c2.689,0.03,5.325,0.06,7.913,0.082v-28.118
		C370.607,266.396,370.416,266.381,370.21,266.381z"/>
	<path style="fill:#3D3027;" d="M380.292,278.501v16.151c1.791,0.019,3.553,0.041,5.269,0.064v-26.035
		C382.603,269.231,380.292,273.415,380.292,278.501z"/>
	<path style="fill:#3D3027;" d="M394.525,281.272v13.552c1.077,0.011,2.132,0.026,3.16,0.045v-22.811
		C395.838,273.49,394.525,277.073,394.525,281.272z"/>
	<path style="fill:#3D3027;" d="M406.78,294.981c0.673,0.007,1.335,0.019,1.975,0.03V273.61c-1.159,1.63-1.975,4.869-1.975,8.713
		V294.981z M408.758,273.479v0.131c0.123-0.172,0.228-0.415,0.359-0.546C408.99,273.183,408.874,273.325,408.758,273.479z"/>
	<path style="fill:#3D3027;" d="M415.874,285.225v9.872c0.453,0.011,0.89,0.019,1.313,0.022v-18.739
		C416.409,278.004,415.874,281.351,415.874,285.225z"/>
</g>
<g>
	<path style="fill:#774F39;" d="M304.614,268.673c0-0.015,0-0.026-0.004-0.034c-0.108-0.621-0.28-1.219-0.49-1.791
		c-0.004-0.007-0.004-0.015-0.007-0.026c-0.434-1.152-1.055-2.199-1.829-3.085v30.152c0.838,0.004,1.672,0.011,2.502,0.022v-23.316
		C304.786,269.934,304.727,269.294,304.614,268.673z"/>
	<polygon style="fill:#774F39;" points="351.426,265.876 351.426,265.88 351.456,265.884 	"/>
	<path style="fill:#774F39;" d="M357.649,273.92c-0.007-0.086-0.019-0.165-0.034-0.243c-0.071-0.486-0.179-0.954-0.31-1.41
		c-0.026-0.079-0.045-0.157-0.075-0.236c-0.15-0.467-0.31-0.92-0.516-1.342c-0.011-0.022-0.015-0.041-0.026-0.06
		c-0.209-0.441-0.445-0.856-0.711-1.253c-0.011-0.022-0.022-0.045-0.041-0.071c-0.266-0.393-0.561-0.763-0.871-1.099
		c-0.034-0.03-0.06-0.064-0.086-0.093c-0.322-0.34-0.662-0.662-1.025-0.939c-0.004,0-0.011-0.004-0.015-0.004
		c-0.759-0.58-1.593-1.013-2.487-1.279c-0.011,0-0.019-0.007-0.03-0.007l-0.037,28.454c2.143,0.011,4.271,0.041,6.372,0.064v-18.922
		C357.761,274.937,357.709,274.432,357.649,273.92z"/>
	<path style="fill:#774F39;" d="M377.491,275.274c-0.011-0.108-0.026-0.221-0.037-0.337c-0.019-0.206-0.041-0.415-0.075-0.621
		c-0.019-0.135-0.045-0.254-0.067-0.389c-0.034-0.176-0.067-0.359-0.101-0.535c-0.03-0.146-0.075-0.273-0.105-0.408
		c-0.041-0.165-0.079-0.322-0.131-0.479c-0.041-0.142-0.094-0.28-0.142-0.423c-0.052-0.138-0.094-0.277-0.146-0.415
		c-0.064-0.142-0.123-0.292-0.187-0.426c-0.052-0.12-0.105-0.247-0.161-0.37c-0.071-0.146-0.15-0.284-0.228-0.423
		c-0.052-0.105-0.112-0.217-0.168-0.314c-0.086-0.142-0.176-0.284-0.266-0.419c-0.06-0.09-0.116-0.179-0.176-0.262
		c-0.097-0.142-0.202-0.28-0.307-0.415c-0.06-0.067-0.116-0.142-0.172-0.213c-0.116-0.138-0.239-0.262-0.359-0.396
		c-0.052-0.049-0.112-0.108-0.161-0.157c-0.131-0.131-0.269-0.251-0.404-0.366c-0.056-0.049-0.105-0.09-0.157-0.123
		c-0.146-0.123-0.295-0.239-0.449-0.337c-0.045-0.03-0.09-0.06-0.135-0.09c-0.165-0.101-0.325-0.202-0.501-0.295
		c-0.037-0.019-0.075-0.034-0.108-0.056c-0.183-0.09-0.366-0.168-0.55-0.239c-0.026-0.015-0.06-0.022-0.082-0.034
		c-0.198-0.067-0.4-0.138-0.598-0.183c-0.022-0.004-0.045-0.011-0.06-0.011c-0.217-0.052-0.426-0.09-0.647-0.116v28.118
		c2.281,0.03,4.525,0.06,6.72,0.082v-18.358C377.529,275.932,377.514,275.603,377.491,275.274z"/>
	<path style="fill:#774F39;" d="M386.223,268.617c-0.224,0-0.441,0.026-0.662,0.064v26.035c2.266,0.026,4.465,0.052,6.597,0.079
		v-16.293C392.162,273.045,389.499,268.617,386.223,268.617z"/>
</g>
<path style="fill:#704936;" d="M399.465,271.385c-0.157,0-0.318,0.019-0.479,0.056c-0.108,0.019-0.224,0.056-0.333,0.093
	c-0.041,0.007-0.079,0.019-0.116,0.034c-0.135,0.049-0.28,0.12-0.415,0.198c-0.004,0-0.007,0.007-0.015,0.007
	c-0.138,0.082-0.28,0.179-0.415,0.284c0,0,0,0-0.004,0v22.811c2.36,0.022,4.603,0.056,6.727,0.082v-13.679
	C404.412,275.809,402.199,271.385,399.465,271.385z"/>
<path style="fill:#684432;" d="M410.34,272.439c-0.135,0-0.266,0.022-0.404,0.067c-0.022,0.011-0.056,0.026-0.082,0.041
	c-0.112,0.041-0.209,0.086-0.314,0.157c-0.019,0.011-0.045,0.03-0.067,0.045c-0.112,0.079-0.221,0.176-0.329,0.28
	c-0.004,0.007-0.019,0.019-0.026,0.03c-0.127,0.123-0.239,0.266-0.359,0.419v21.532c1.844,0.019,3.568,0.041,5.142,0.067v-12.756
	C413.9,276.859,412.307,272.439,410.34,272.439z"/>
<path style="fill:#5B3C2C;" d="M418.241,275.341c-0.086,0-0.176,0.022-0.266,0.067c-0.015,0.007-0.037,0.022-0.06,0.034
	c-0.071,0.045-0.138,0.09-0.206,0.161c-0.015,0.011-0.037,0.03-0.049,0.049c-0.075,0.075-0.15,0.168-0.221,0.273
	c-0.004,0.007-0.015,0.026-0.019,0.041c-0.082,0.12-0.157,0.258-0.236,0.411v18.739c1.275,0.015,2.416,0.03,3.429,0.045v-9.94
	C420.62,279.765,419.558,275.341,418.241,275.341z"/>
<path style="fill:#BC8257;" d="M328.51,307.318l-2.393-10.77l-16.753-1.197L295,231.921l-20.347-2.393l-15.889-44.258l-0.86-2.42
	l4.783-4.783v-15.557l-7.778-0.598l-7.782-0.602l-25.085-58.147C69.65,107.958,49.661,146.348,49.661,146.348v122.819
	c0,0,0.654,2.143,4.899,5.325c-3.762,2.674-4.899,4.398-4.899,4.398v57.447c0,18.922,91.017,29.92,203.298,29.92
	c26.891,0,52.545-0.636,76.037-1.859l6.686-45.118l1.2-10.766L328.51,307.318z"/>
<path style="fill:#CB8F5B;" d="M328.51,307.318l-2.393-10.77l-16.753-1.197L295,231.921l-20.347-2.393l-15.889-44.258l-0.86-2.42
	l4.783-4.783v-15.557l-7.778-0.598l-7.782-0.602l-15.336-35.541c0,0-89.204,4.985-144.131,19.734
	c-21.345,4.708-37.998,15.067-37.998,15.067v108.601c0,0,0.654,2.143,4.899,5.325c-3.762,2.674-4.899,4.398-4.899,4.398v57.444
	c0,18.922,91.017,29.92,203.298,29.92c26.891,0,52.545-0.636,76.037-1.859l6.686-45.118l1.2-10.766L328.51,307.318z"/>
<g>
	<path style="fill:#3D3027;" d="M238.918,197.872c3.818,1.541,6.563,5.68,6.563,10.557v25.601h0.452v-25.601
		C245.933,203.552,243.001,199.417,238.918,197.872z"/>
	<path style="fill:#3D3027;" d="M242.646,206.189c-1.544-5.845-6.765-8.818-7.012-8.964c-0.082,0-0.161-0.011-0.247-0.011
		c-5.823,0-10.549,5.022-10.549,11.219v25.855c6.35-0.127,12.789-0.206,19.315-0.247
		C243.716,219.891,243.199,208.291,242.646,206.189z"/>
	<path style="fill:#3D3027;" d="M200.83,199.005c-2.857,0-5.419,1.342-7.255,3.463v32.8c5.68-0.251,11.469-0.464,17.352-0.639
		v-24.401C210.931,204.031,206.402,199.005,200.83,199.005z M193.407,202.674c0.056-0.071,0.112-0.138,0.172-0.206v-0.034
		C193.512,202.509,193.467,202.599,193.407,202.674z"/>
	<path style="fill:#3D3027;" d="M168.965,201.548c-2.124,0-4.084,0.811-5.68,2.169l-0.075,33.32c5.019-0.37,10.16-0.703,15.407-1.01
		v-23.256C178.617,206.57,174.294,201.548,168.965,201.548z"/>
</g>
<g>
	<path style="fill:#774F39;" d="M163.109,203.867c0.06-0.052,0.116-0.105,0.172-0.153v-0.011
		C163.225,203.754,163.173,203.814,163.109,203.867z"/>
	<path style="fill:#774F39;" d="M163.109,203.867c-0.18,0.157-0.352,0.325-0.52,0.501c-0.093,0.093-0.191,0.191-0.28,0.292
		c-0.168,0.191-0.329,0.385-0.49,0.587c-0.075,0.094-0.157,0.187-0.232,0.288c-0.206,0.284-0.4,0.583-0.58,0.886
		c-0.015,0.022-0.034,0.045-0.045,0.071c-0.187,0.329-0.363,0.669-0.527,1.025c-0.049,0.116-0.101,0.236-0.15,0.348
		c-0.105,0.254-0.198,0.497-0.288,0.763c-0.049,0.135-0.094,0.284-0.135,0.426c-0.075,0.247-0.142,0.501-0.202,0.755
		c-0.037,0.15-0.075,0.295-0.097,0.449c-0.06,0.273-0.101,0.553-0.131,0.834c-0.022,0.131-0.045,0.269-0.056,0.404
		c-0.041,0.419-0.067,0.838-0.067,1.268v24.558c1.286-0.101,2.584-0.202,3.893-0.295l0.075-33.32
		C163.225,203.766,163.169,203.814,163.109,203.867z"/>
</g>
<g>
	<path style="fill:#3D3027;" d="M140.021,204.54c-0.774,0-1.518,0.127-2.24,0.329l0.052,34.404c3.781-0.4,7.655-0.774,11.608-1.126
		v-22.393C149.441,209.566,145.223,204.54,140.021,204.54z"/>
	<path style="fill:#3D3027;" d="M116.454,207.834c-0.228,0-0.449,0.019-0.669,0.045v34.112c2.913-0.415,5.905-0.819,8.975-1.208
		v-21.731C124.763,212.86,121.046,207.834,116.454,207.834z"/>
	<path style="fill:#3D3027;" d="M99.031,211.645v33.088c1.945-0.363,3.945-0.714,5.983-1.055v-20.882
		C105.015,217.019,102.401,212.269,99.031,211.645z"/>
	<path style="fill:#3D3027;" d="M85.27,216.675v30.967c1.17-0.28,2.367-0.557,3.586-0.838V227.13
		C88.856,222.359,87.364,218.298,85.27,216.675z"/>
	<path style="fill:#3D3027;" d="M72.305,220.799c0.138,0.142,0.269,0.329,0.4,0.512v-0.03
		C72.574,221.102,72.439,220.945,72.305,220.799z M72.705,221.312v29.823c0.729-0.236,1.477-0.467,2.244-0.703v-19.113
		C74.949,226.929,74.032,223.152,72.705,221.312z"/>
	<path style="fill:#3D3027;" d="M63.128,225.321v29.464c0.486-0.228,0.987-0.441,1.496-0.654v-18.776
		C64.624,230.96,64.014,227.164,63.128,225.321z"/>
</g>
<g>
	<path style="fill:#513E31;" d="M235.608,197.21c0,0,0.019,0.007,0.026,0.011c1.152,0.03,2.255,0.262,3.283,0.651
		C237.874,197.45,236.775,197.21,235.608,197.21z"/>
	<path style="fill:#513E31;" d="M238.918,197.872c-1.028-0.389-2.132-0.621-3.283-0.651c0.243,0.146,5.467,3.119,7.012,8.964
		c0.553,2.102,1.073,13.702,1.507,27.852c0.441,0,0.89,0,1.331-0.004v-25.601C245.481,203.552,242.739,199.417,238.918,197.872z"/>
</g>
<g>
	<path style="fill:#774F39;" d="M191.5,205.946c-0.004,0.007-0.011,0.019-0.011,0.03c-0.243,0.651-0.43,1.324-0.557,2.027
		c-0.004,0.011-0.004,0.026-0.004,0.037c-0.127,0.707-0.194,1.436-0.194,2.184v25.175c0.942-0.049,1.888-0.09,2.842-0.135v-32.833
		C192.697,203.444,191.99,204.629,191.5,205.946z"/>
	<path style="fill:#774F39;" d="M137.781,204.873c-0.007,0.004-0.019,0.011-0.03,0.011c-1.021,0.299-1.967,0.789-2.823,1.451
		c0,0-0.004,0.004-0.011,0.007c-0.411,0.314-0.8,0.673-1.17,1.062c-0.034,0.041-0.067,0.075-0.097,0.108
		c-0.359,0.385-0.688,0.804-0.991,1.249c-0.015,0.03-0.03,0.056-0.049,0.079c-0.299,0.452-0.565,0.924-0.8,1.425
		c-0.007,0.019-0.019,0.037-0.03,0.067c-0.232,0.479-0.419,0.995-0.583,1.522c-0.026,0.086-0.06,0.176-0.082,0.266
		c-0.146,0.52-0.269,1.047-0.355,1.601c-0.015,0.09-0.026,0.183-0.034,0.277c-0.079,0.576-0.127,1.163-0.127,1.758v24.311
		c2.367-0.269,4.79-0.538,7.236-0.797L137.781,204.873z"/>
	<path style="fill:#774F39;" d="M115.781,207.879c-0.247,0.026-0.494,0.075-0.74,0.127c-0.022,0.004-0.041,0.011-0.064,0.015
		c-0.224,0.056-0.456,0.127-0.681,0.209c-0.03,0.015-0.06,0.019-0.097,0.037c-0.209,0.082-0.419,0.18-0.621,0.28
		c-0.041,0.019-0.086,0.041-0.131,0.064c-0.194,0.097-0.385,0.217-0.565,0.329c-0.056,0.034-0.108,0.067-0.153,0.105
		c-0.176,0.12-0.348,0.243-0.512,0.381c-0.064,0.045-0.123,0.09-0.179,0.142c-0.157,0.135-0.31,0.273-0.456,0.419
		c-0.064,0.064-0.127,0.127-0.183,0.187c-0.146,0.142-0.273,0.292-0.408,0.445c-0.067,0.079-0.131,0.161-0.194,0.239
		c-0.12,0.157-0.236,0.31-0.352,0.467c-0.067,0.097-0.131,0.194-0.202,0.295c-0.097,0.157-0.198,0.314-0.299,0.486
		c-0.071,0.116-0.131,0.228-0.194,0.348c-0.09,0.168-0.168,0.322-0.251,0.49c-0.067,0.131-0.127,0.273-0.187,0.415
		c-0.071,0.157-0.142,0.314-0.206,0.482c-0.056,0.153-0.108,0.31-0.165,0.471c-0.052,0.157-0.112,0.318-0.165,0.482
		c-0.052,0.172-0.097,0.355-0.146,0.535c-0.037,0.153-0.082,0.303-0.12,0.471c-0.041,0.194-0.082,0.404-0.116,0.606
		c-0.026,0.15-0.056,0.288-0.079,0.441c-0.034,0.232-0.052,0.467-0.079,0.707c-0.011,0.127-0.034,0.247-0.041,0.381
		c-0.026,0.366-0.045,0.737-0.045,1.114v24.102c2.483-0.396,5.022-0.789,7.636-1.167v-34.112h-0.007V207.879z"/>
	<path style="fill:#774F39;" d="M98.283,211.57c-3.717,0-6.731,5.026-6.731,11.222v23.432c2.412-0.516,4.899-1.013,7.479-1.496
		v-33.088C98.785,211.604,98.534,211.57,98.283,211.57z"/>
</g>
<path style="fill:#704936;" d="M85.262,216.671c-0.153-0.116-0.31-0.228-0.467-0.314c-0.004-0.004-0.007-0.004-0.015-0.007
	c-0.157-0.09-0.318-0.161-0.479-0.228c-0.041-0.019-0.082-0.026-0.127-0.041c-0.127-0.041-0.251-0.082-0.385-0.108
	c-0.179-0.034-0.355-0.049-0.542-0.049c-3.096,0-5.609,5.019-5.609,11.219v22.508c2.408-0.688,4.955-1.354,7.636-1.997v-30.967
	C85.266,216.675,85.266,216.671,85.262,216.671z"/>
<path style="fill:#684432;" d="M72.305,220.799c-0.015-0.011-0.022-0.022-0.041-0.034c-0.116-0.123-0.243-0.228-0.37-0.314
	c-0.026-0.015-0.052-0.037-0.079-0.06c-0.116-0.071-0.232-0.123-0.352-0.168c-0.03-0.019-0.064-0.034-0.097-0.045
	c-0.15-0.049-0.303-0.079-0.46-0.079c-2.233,0-4.039,5.03-4.039,11.222v21.891c1.817-0.711,3.762-1.402,5.841-2.075v-29.853
	C72.574,221.102,72.439,220.945,72.305,220.799z"/>
<path style="fill:#5B3C2C;" d="M62.866,224.846c-0.011-0.011-0.026-0.03-0.034-0.041c-0.079-0.12-0.157-0.224-0.239-0.31
	c-0.022-0.022-0.037-0.045-0.056-0.06c-0.079-0.075-0.153-0.131-0.239-0.179c-0.019-0.011-0.037-0.034-0.064-0.041
	c-0.097-0.049-0.198-0.071-0.303-0.071c-1.485,0-2.696,5.019-2.696,11.215v21.372c1.193-0.662,2.494-1.309,3.893-1.945v-29.464
	C63.042,225.145,62.952,224.988,62.866,224.846z"/>
<g>
	<path style="fill:#B5794D;" d="M221.435,101.743c-97.311,3.545-171.774,23.006-171.774,42.508v7.786
		c0-19.723,76.156-39.408,175.079-42.624L221.435,101.743z"/>
	<path style="fill:#B5794D;" d="M258.229,183.766c-1.75-0.011-3.504-0.015-5.265-0.015c-112.281,0-203.298,21.518-203.298,43.084
		v7.778c0-21.562,91.017-43.084,203.298-43.084c2.704,0,5.389,0.015,8.07,0.037L258.229,183.766z"/>
	<path style="fill:#B5794D;" d="M296.78,239.77c-14.117-0.441-28.769-0.669-43.817-0.669c-112.281,0-203.298,12.546-203.298,34.105
		v11.376c0-21.566,91.017-34.109,203.298-34.109c15.968,0,31.506,0.251,46.404,0.752L296.78,239.77z"/>
	<path style="fill:#B5794D;" d="M329,307.385c-26.121-0.209-52.425-0.363-74.691-0.363c-76.594,0-201.054,1.791-201.054,1.791v2.992
		h283.265l0.37-3.291L329,307.385z"/>
</g>
<path style="fill:#A56F4A;" d="M53.255,311.806c0,0,124.46,5.684,201.054,5.684c24.266,0,53.334-0.568,81.725-1.35l0.482-4.334
	H53.255z"/>
<g>
	<path style="fill:#3D3027;" d="M272.413,322.576c-6.196,0-11.219,5.019-11.219,11.219v25.13h14.169
		c2.771-0.037,5.531-0.079,8.276-0.131v-24.999C283.635,327.594,278.606,322.576,272.413,322.576z"/>
	<path style="fill:#3D3027;" d="M275.36,358.924h8.276v-0.131C280.891,358.849,278.127,358.891,275.36,358.924z"/>
	<path style="fill:#3D3027;" d="M235.387,322.576c-5.823,0-10.549,5.019-10.549,11.219v25.059c1.716,0.026,3.437,0.052,5.161,0.075
		h15.934v-25.13C245.933,327.594,241.21,322.576,235.387,322.576z"/>
	<path style="fill:#3D3027;" d="M200.83,322.576c-5.579,0-10.097,5.019-10.097,11.219v23.997c6.574,0.299,13.313,0.546,20.194,0.744
		v-24.741C210.931,327.594,206.402,322.576,200.83,322.576z"/>
	<path style="fill:#3D3027;" d="M168.965,321.229c-5.325,0-9.644,5.018-9.644,11.219v23.634c6.249,0.434,12.685,0.819,19.296,1.159
		v-24.793C178.617,326.248,174.294,321.229,168.965,321.229z"/>
</g>
<path style="fill:#774F39;" d="M159.317,332.448v23.634c1.522,0.105,2.195,0.213,3.743,0.31l0.221-33.009
	C160.876,325.418,159.317,328.72,159.317,332.448z"/>
<g>
	<path style="fill:#3D3027;" d="M140.021,320.332c-5.205,0-9.427,5.018-9.427,11.219v22.209c6.021,0.628,12.318,1.208,18.844,1.728
		v-23.937C149.441,325.35,145.223,320.332,140.021,320.332z"/>
	<path style="fill:#3D3027;" d="M116.454,319.434c-4.588,0-8.302,5.019-8.302,11.215v20.411c5.258,0.744,10.796,1.44,16.611,2.079
		v-22.49C124.763,324.457,121.046,319.434,116.454,319.434z"/>
	<path style="fill:#3D3027;" d="M98.283,318.986c-3.717,0-6.731,5.022-6.731,11.219v18.163c4.218,0.789,8.709,1.537,13.462,2.236
		v-20.399C105.015,324.008,102.001,318.986,98.283,318.986z"/>
	<path style="fill:#3D3027;" d="M83.247,316.742c-3.096,0-5.609,5.015-5.609,11.219v17.411c3.459,0.86,7.206,1.694,11.219,2.479
		v-19.891C88.856,321.757,86.351,316.742,83.247,316.742z"/>
	<path style="fill:#3D3027;" d="M70.902,315.392c-2.233,0-4.039,5.022-4.039,11.219v15.628c2.457,0.841,5.149,1.653,8.081,2.434
		v-18.062C74.949,320.418,73.135,315.392,70.902,315.392z"/>
	<path style="fill:#3D3027;" d="M61.931,314.947c-1.485,0-2.696,5.022-2.696,11.219v12.988c1.604,0.778,3.41,1.544,5.389,2.285
		v-15.272C64.624,319.969,63.416,314.947,61.931,314.947z"/>
</g>
<g>
	<path style="fill:#513E31;" d="M272.413,322.576c0,0,4.633,4.192,6.432,10.172c1.795,5.987,4.79,26.181,4.79,26.181v-25.13
		C283.635,327.594,278.606,322.576,272.413,322.576z"/>
	<path style="fill:#513E31;" d="M235.608,322.576c0,0,5.452,2.992,7.034,8.975c1.578,5.987,2.838,27.377,2.838,27.377v-25.13
		C245.481,327.594,241.064,322.576,235.608,322.576z"/>
</g>
<g>
	<path style="fill:#774F39;" d="M190.733,333.794v23.997c0.931,0.037,1.896,0.075,2.842,0.112v-31.902
		C191.814,328.02,190.733,330.765,190.733,333.794z"/>
	<path style="fill:#774F39;" d="M137.781,320.657c-4.121,1.197-7.184,5.609-7.184,10.893v22.209c2.247,0.236,5,0.464,7.33,0.684
		L137.781,320.657z"/>
	<path style="fill:#774F39;" d="M108.152,330.649v20.411c2.479,0.355,5.022,0.688,7.636,1.017v-32.602
		C111.514,319.947,108.152,324.763,108.152,330.649z"/>
	<path style="fill:#774F39;" d="M98.283,318.986c-3.717,0-6.731,5.022-6.731,11.219v18.163c2.401,0.449,4.91,0.879,7.479,1.305
		V319.06C98.785,319.016,98.534,318.986,98.283,318.986z"/>
</g>
<path style="fill:#704936;" d="M83.247,316.742c-3.096,0-5.609,5.015-5.609,11.219v17.411c2.405,0.602,4.955,1.178,7.636,1.743
	v-29.614C84.642,317.019,83.965,316.742,83.247,316.742z"/>
<path style="fill:#684432;" d="M70.902,315.392c-2.233,0-4.039,5.022-4.039,11.219v15.628c1.806,0.613,3.781,1.212,5.841,1.799
	v-27.463C72.159,315.826,71.553,315.392,70.902,315.392z"/>
<path style="fill:#5B3C2C;" d="M61.931,314.947c-1.485,0-2.696,5.022-2.696,11.219v12.988c1.185,0.572,2.506,1.133,3.893,1.69
	v-24.707C62.772,315.381,62.361,314.947,61.931,314.947z"/>
<g>
	<path style="fill:#3D3027;" d="M224.991,358.797v0.131h8.268C230.489,358.891,227.725,358.849,224.991,358.797z"/>
	<path style="fill:#3D3027;" d="M307.793,322.576c-5.579,0-10.097,5.019-10.097,11.219v24.745
		c6.881-0.198,13.612-0.449,20.194-0.744v-24.001C317.89,327.594,313.361,322.576,307.793,322.576z"/>
</g>
<path style="fill:#774F39;" d="M315.044,326.005v31.902c0.946-0.041,1.903-0.075,2.846-0.112v-24.001
	C317.89,330.765,316.802,328.02,315.044,326.005z"/>
<g>
	<path style="fill:#3D3027;" d="M278.845,270.218c-1.799-5.987-6.432-10.175-6.432-10.175c-6.196,0-11.219,5.022-11.219,11.219
		v27.983c6.383,0.011,13.044,0.026,19.891,0.06C280.307,284.63,279.496,272.398,278.845,270.218z"/>
	<path style="fill:#3D3027;" d="M242.646,269.021c-1.544-5.845-6.765-8.825-7.012-8.964c-0.082,0-0.161-0.015-0.247-0.015
		c-5.823,0-10.549,5.022-10.549,11.219v28.051c6.653-0.03,13.141-0.052,19.382-0.064
		C243.775,284.032,243.233,271.239,242.646,269.021z"/>
	<path style="fill:#3D3027;" d="M238.918,260.701c3.818,1.548,6.563,5.684,6.563,10.561v27.987h0.452v-27.987
		C245.933,266.385,243.001,262.249,238.918,260.701z"/>
	<path style="fill:#3D3027;" d="M200.83,261.837c-2.857,0-5.419,1.339-7.255,3.459v34.202c5.826-0.045,11.63-0.079,17.352-0.112
		V273.06C210.931,266.863,206.402,261.837,200.83,261.837z M193.426,265.476c0.052-0.06,0.101-0.12,0.153-0.18v-0.03
		C193.519,265.334,193.482,265.413,193.426,265.476z"/>
	<path style="fill:#3D3027;" d="M168.965,264.377c-2.124,0-4.084,0.815-5.68,2.169l-0.075,33.2
		c5.101-0.045,10.25-0.086,15.407-0.131v-24.016C178.617,269.403,174.294,264.377,168.965,264.377z"/>
</g>
<g>
	<path style="fill:#774F39;" d="M163.109,266.695c0.06-0.045,0.116-0.101,0.172-0.15v-0.015
		C163.225,266.583,163.173,266.643,163.109,266.695z"/>
	<path style="fill:#774F39;" d="M163.109,266.695c-0.18,0.161-0.352,0.333-0.52,0.505c-0.093,0.093-0.191,0.198-0.28,0.295
		c-0.168,0.183-0.329,0.385-0.49,0.587c-0.075,0.093-0.157,0.191-0.232,0.288c-0.206,0.284-0.4,0.576-0.58,0.89
		c-0.015,0.019-0.034,0.041-0.045,0.067c-0.187,0.325-0.363,0.669-0.527,1.028c-0.049,0.108-0.101,0.232-0.15,0.348
		c-0.105,0.243-0.198,0.494-0.288,0.759c-0.049,0.135-0.094,0.28-0.135,0.423c-0.075,0.247-0.142,0.497-0.202,0.759
		c-0.037,0.146-0.075,0.292-0.097,0.445c-0.06,0.273-0.101,0.553-0.131,0.834c-0.022,0.131-0.045,0.266-0.056,0.396
		c-0.041,0.426-0.067,0.849-0.067,1.279v24.184c1.29-0.011,2.588-0.026,3.893-0.037l0.075-33.2
		C163.225,266.594,163.169,266.65,163.109,266.695z"/>
</g>
<g>
	<path style="fill:#3D3027;" d="M140.021,267.376c-0.774,0-1.518,0.123-2.24,0.325l0.052,32.295
		c3.818-0.041,7.692-0.075,11.608-0.116v-21.289C149.441,272.398,145.223,267.376,140.021,267.376z"/>
	<path style="fill:#3D3027;" d="M134.928,269.156c0.856-0.651,1.802-1.144,2.823-1.443
		C136.73,268.012,135.784,268.505,134.928,269.156z"/>
	<path style="fill:#3D3027;" d="M116.454,268.27c-0.228,0-0.449,0.019-0.669,0.049v31.925c2.928-0.03,5.923-0.067,8.975-0.101
		v-20.65C124.763,273.296,121.046,268.27,116.454,268.27z"/>
	<path style="fill:#3D3027;" d="M99.031,270.884v29.55c1.952-0.019,3.945-0.049,5.983-0.071v-18.335
		C105.015,276.261,102.401,271.512,99.031,270.884z"/>
	<path style="fill:#3D3027;" d="M85.27,274.72v25.889c1.17-0.015,2.367-0.03,3.586-0.045V285.18
		C88.856,280.404,87.364,276.34,85.27,274.72z"/>
	<path style="fill:#3D3027;" d="M72.305,275.857c0.138,0.142,0.269,0.329,0.4,0.512v-0.034
		C72.574,276.156,72.439,275.999,72.305,275.857z M72.705,276.369v24.397c0.729-0.011,1.477-0.019,2.244-0.026v-14.367
		C74.949,281.983,74.032,278.209,72.705,276.369z"/>
	<path style="fill:#3D3027;" d="M63.128,279.78v21.117c0.482-0.007,0.98-0.011,1.496-0.019v-11.065
		C64.624,285.415,64.014,281.62,63.128,279.78z"/>
</g>
<g>
	<path style="fill:#513E31;" d="M272.413,260.042c0,0,4.633,4.188,6.432,10.175c0.651,2.18,1.466,14.412,2.236,29.086
		c0.845,0,1.694,0.004,2.554,0.007v-28.051C283.635,265.065,278.606,260.042,272.413,260.042z"/>
	<path style="fill:#513E31;" d="M235.608,260.042c0,0,0.019,0.011,0.026,0.015c1.152,0.026,2.255,0.251,3.283,0.643
		C237.874,260.282,236.775,260.042,235.608,260.042z"/>
	<path style="fill:#513E31;" d="M238.918,260.701c-1.028-0.393-2.132-0.617-3.283-0.643c0.243,0.138,5.467,3.119,7.012,8.964
		c0.587,2.218,1.129,15.014,1.574,30.227h1.264v-27.987C245.481,266.385,242.739,262.249,238.918,260.701z"/>
</g>
<g>
	<path style="fill:#774F39;" d="M191.5,268.774c-0.004,0.007-0.011,0.019-0.011,0.03c-0.243,0.647-0.43,1.331-0.557,2.034
		c-0.004,0.011-0.004,0.022-0.004,0.034c-0.127,0.711-0.194,1.44-0.194,2.184v26.457c0.942-0.004,1.888-0.007,2.842-0.019v-34.232
		C192.697,266.276,191.99,267.462,191.5,268.774z"/>
	<polygon style="fill:#774F39;" points="137.751,267.712 137.781,267.701 137.781,267.697 	"/>
	<path style="fill:#774F39;" d="M137.781,267.701c-0.007,0.004-0.019,0.004-0.03,0.007c-1.021,0.303-1.967,0.793-2.823,1.443
		c0,0.004-0.004,0.004-0.011,0.011c-0.411,0.318-0.8,0.677-1.17,1.066c-0.034,0.037-0.067,0.075-0.097,0.108
		c-0.359,0.389-0.688,0.8-0.991,1.253c-0.015,0.022-0.03,0.052-0.049,0.079c-0.299,0.445-0.565,0.924-0.8,1.421
		c-0.007,0.019-0.019,0.041-0.03,0.067c-0.232,0.486-0.419,0.998-0.583,1.522c-0.026,0.09-0.06,0.18-0.082,0.266
		c-0.146,0.524-0.269,1.055-0.355,1.597c-0.015,0.097-0.026,0.191-0.034,0.288c-0.079,0.572-0.127,1.159-0.127,1.758v21.48
		c2.382-0.022,4.798-0.045,7.236-0.075L137.781,267.701z"/>
	<path style="fill:#774F39;" d="M115.781,268.318c-0.247,0.026-0.494,0.075-0.74,0.131c-0.022,0-0.041,0.004-0.064,0.011
		c-0.224,0.052-0.456,0.127-0.681,0.209c-0.03,0.011-0.06,0.019-0.097,0.03c-0.209,0.079-0.419,0.176-0.621,0.28
		c-0.041,0.019-0.086,0.034-0.131,0.064c-0.194,0.097-0.385,0.217-0.565,0.337c-0.056,0.03-0.108,0.064-0.153,0.097
		c-0.176,0.116-0.348,0.247-0.512,0.378c-0.064,0.049-0.123,0.097-0.179,0.142c-0.157,0.131-0.31,0.273-0.456,0.419
		c-0.064,0.064-0.127,0.123-0.183,0.187c-0.146,0.146-0.273,0.288-0.408,0.449c-0.067,0.079-0.131,0.157-0.194,0.239
		c-0.12,0.153-0.236,0.307-0.352,0.467c-0.067,0.094-0.131,0.194-0.202,0.295c-0.097,0.157-0.198,0.318-0.299,0.482
		c-0.071,0.116-0.131,0.236-0.194,0.352c-0.09,0.165-0.168,0.318-0.251,0.486c-0.067,0.135-0.127,0.277-0.187,0.419
		c-0.071,0.157-0.142,0.318-0.206,0.482c-0.056,0.153-0.108,0.31-0.165,0.471c-0.052,0.157-0.112,0.314-0.165,0.482
		c-0.052,0.172-0.097,0.352-0.146,0.535c-0.037,0.153-0.082,0.31-0.12,0.467c-0.041,0.202-0.082,0.404-0.116,0.61
		c-0.026,0.15-0.056,0.288-0.079,0.438c-0.034,0.236-0.052,0.471-0.079,0.711c-0.011,0.127-0.034,0.243-0.041,0.378
		c-0.026,0.366-0.045,0.74-0.045,1.118v20.837c2.494-0.026,5.033-0.056,7.636-0.082v-31.925h-0.007V268.318z"/>
	<path style="fill:#774F39;" d="M98.283,270.812c-3.717,0-6.731,5.026-6.731,11.219v18.496c2.412-0.03,4.906-0.06,7.479-0.09v-29.55
		C98.785,270.846,98.534,270.812,98.283,270.812z"/>
</g>
<path style="fill:#704936;" d="M85.262,274.72c-0.153-0.123-0.31-0.232-0.467-0.322c-0.004-0.004-0.007-0.004-0.015-0.011
	c-0.157-0.086-0.318-0.161-0.479-0.224c-0.041-0.015-0.082-0.026-0.127-0.045c-0.127-0.041-0.251-0.082-0.385-0.108
	c-0.179-0.037-0.355-0.056-0.542-0.056c-3.096,0-5.609,5.026-5.609,11.222v15.527c2.405-0.03,4.951-0.064,7.636-0.094V274.72
	C85.266,274.72,85.266,274.72,85.262,274.72z"/>
<path style="fill:#684432;" d="M72.305,275.857c-0.015-0.011-0.022-0.03-0.041-0.037c-0.116-0.131-0.243-0.228-0.37-0.314
	c-0.026-0.019-0.052-0.045-0.079-0.06c-0.116-0.071-0.232-0.131-0.352-0.176c-0.03-0.011-0.064-0.03-0.097-0.041
	c-0.15-0.049-0.303-0.075-0.46-0.075c-2.233,0-4.039,5.018-4.039,11.219v14.472c1.791-0.022,3.743-0.052,5.841-0.079v-24.431
	C72.574,276.156,72.439,275.999,72.305,275.857z"/>
<path style="fill:#5B3C2C;" d="M62.866,279.301c-0.011-0.015-0.026-0.03-0.034-0.045c-0.079-0.116-0.157-0.221-0.239-0.307
	c-0.022-0.019-0.037-0.041-0.056-0.064c-0.079-0.071-0.153-0.131-0.239-0.172c-0.019-0.015-0.037-0.037-0.064-0.049
	c-0.097-0.049-0.198-0.075-0.303-0.075c-1.485,0-2.696,5.026-2.696,11.219v11.14c1.152-0.015,2.449-0.037,3.893-0.056v-21.117
	C63.042,279.6,62.952,279.443,62.866,279.301z"/>
<path style="fill:#3D3027;" d="M280.745,230.242l-6.092-0.718l-10.347-28.828c-1.926,2.008-3.115,4.734-3.115,7.737v25.609
	c6.679,0.041,13.276,0.116,19.775,0.243C280.891,232.908,280.82,231.562,280.745,230.242z"/>
<path style="fill:#513E31;" d="M280.745,230.242c0.075,1.32,0.146,2.663,0.221,4.039c0.89,0.019,1.784,0.034,2.67,0.052v-3.747
	L280.745,230.242z"/>
<g>
	<path style="fill:#3D3027;" d="M330.002,332.448v24.793h0.105l5.112-34.748C332.127,324.359,330.002,328.114,330.002,332.448z"/>
	<path style="fill:#3D3027;" d="M309.364,295.348l-7.165-31.629c-2.715,2.008-4.502,5.441-4.502,9.341v26.327
		c5.722,0.034,11.518,0.071,17.348,0.112v-3.743L309.364,295.348z"/>
</g>
<path style="fill:#774F39;" d="M315.044,295.755v3.743c0.95,0.011,1.896,0.015,2.846,0.019v-3.56L315.044,295.755z"/>
<path style="fill:#B5794D;" d="M252.963,366.258c-112.281,0-203.298-10.998-203.298-29.92v2.838
	c0,18.918,91.017,34.262,203.298,34.262c26.51,0,51.827-0.86,75.057-2.416l0.168-1.141l0.815-5.486
	C305.508,365.622,279.855,366.258,252.963,366.258z"/>
<polygon style="fill:#CB8F5B;" points="326.117,296.544 326.872,299.947 328.51,307.318 "/>
<g>
</g>
<g>
</g>
<g>
</g>
<g>
</g>
<g>
</g>
<g>
</g>
<g>
</g>
<g>
</g>
<g>
</g>
<g>
</g>
<g>
</g>
<g>
</g>
<g>
</g>
<g>
</g>
<g>
</g>
</svg>
